<?xml version="1.0" encoding="UTF-8" standalone="no"?>
<svg
   xmlns:dc="http://purl.org/dc/elements/1.1/"
   xmlns:cc="http://creativecommons.org/ns#"
   xmlns:rdf="http://www.w3.org/1999/02/22-rdf-syntax-ns#"
   xmlns:svg="http://www.w3.org/2000/svg"
   xmlns="http://www.w3.org/2000/svg"
   xmlns:sodipodi="http://sodipodi.sourceforge.net/DTD/sodipodi-0.dtd"
   xmlns:inkscape="http://www.inkscape.org/namespaces/inkscape"
   sodipodi:docname="psydekick-icon.svg"
   inkscape:version="0.92.4 (5da689c313, 2019-01-14)"
   id="svg2369"
   version="1.1"
   viewBox="0 0 26.143603 26.143604"
   height="98.810471"
   width="98.810471"
   style="enable-background:new"
   inkscape:export-filename="C:\Users\dom\Documents\Unreal Projects\PsydeKick_dev_00\Plugins\PsydeKick\PsydeKick\Resources\Icon128.png"
   inkscape:export-xdpi="124.36"
   inkscape:export-ydpi="124.36">
  <defs
     id="defs2363">
    <clipPath
       id="clipPath99"
       clipPathUnits="userSpaceOnUse">
      <circle
         style="opacity:1;fill:#ffffff;fill-opacity:1;stroke:#000000;stroke-width:2.11666679;stroke-linecap:round;stroke-linejoin:round;stroke-miterlimit:4;stroke-dasharray:none;stroke-dashoffset:0;stroke-opacity:1;paint-order:stroke markers fill"
         id="circle101"
         cx="53.797504"
         cy="15.405462"
         r="12.013469" />
    </clipPath>
    <clipPath
       clipPathUnits="userSpaceOnUse"
       id="clipPath4590">
      <circle
         style="opacity:1;fill:#ffffff;fill-opacity:1;stroke:#000000;stroke-width:2.11666679;stroke-linecap:round;stroke-linejoin:round;stroke-miterlimit:4;stroke-dasharray:none;stroke-dashoffset:0;stroke-opacity:1;paint-order:stroke markers fill"
         id="circle4592"
         cx="53.797504"
         cy="15.405462"
         r="12.013469" />
    </clipPath>
  </defs>
  <sodipodi:namedview
     inkscape:document-rotation="0"
     inkscape:snap-global="false"
     inkscape:bbox-nodes="true"
     inkscape:snap-bbox="true"
     inkscape:snap-center="true"
     inkscape:guide-bbox="true"
     showguides="true"
     inkscape:window-maximized="1"
     inkscape:window-y="-8"
     inkscape:window-x="54"
     inkscape:window-height="1417"
     inkscape:window-width="2498"
     fit-margin-bottom="0"
     fit-margin-right="0"
     fit-margin-left="0"
     fit-margin-top="0"
     inkscape:pagecheckerboard="true"
     showborder="true"
     units="px"
     showgrid="false"
     inkscape:current-layer="layer1"
     inkscape:document-units="px"
     inkscape:cy="40.017537"
     inkscape:cx="41.298621"
     inkscape:zoom="3.9108501"
     inkscape:pageshadow="2"
     inkscape:pageopacity="0.0"
     borderopacity="1.0"
     bordercolor="#666666"
     pagecolor="#ffffff"
     id="base" />
  <metadata
     id="metadata2366">
    <rdf:RDF>
      <cc:Work
         rdf:about="">
        <dc:format>image/svg+xml</dc:format>
        <dc:type
           rdf:resource="http://purl.org/dc/dcmitype/StillImage" />
        <dc:title></dc:title>
      </cc:Work>
    </rdf:RDF>
  </metadata>
  <g
     style="opacity:1"
     id="layer1"
     inkscape:groupmode="layer"
     inkscape:label="Layer 1"
     transform="translate(-40.725702,-2.3336601)">
    <circle
       r="12.013469"
       cy="15.405462"
       cx="53.797504"
       id="circle2494"
       style="opacity:1;fill:#ffffff;fill-opacity:1;stroke:#000000;stroke-width:2.11666679;stroke-linecap:round;stroke-linejoin:round;stroke-miterlimit:4;stroke-dasharray:none;stroke-dashoffset:0;stroke-opacity:1;paint-order:stroke markers fill" />
    <circle
       r="12.013469"
       cy="15.405462"
       cx="53.797504"
       id="circle185"
       style="opacity:1;fill:#ffffff;fill-opacity:1;stroke:#000000;stroke-width:2.11666679;stroke-linecap:round;stroke-linejoin:round;stroke-miterlimit:4;stroke-dasharray:none;stroke-dashoffset:0;stroke-opacity:1;paint-order:stroke markers fill" />
    <g
       clip-path="url(#clipPath99)"
       id="g53">
      <path
         style="font-style:normal;font-weight:normal;font-size:10.58333302px;line-height:1.25;font-family:sans-serif;letter-spacing:0px;word-spacing:0px;fill:#808080;fill-opacity:1;stroke:#000000;stroke-width:2.11666656;stroke-linecap:square;stroke-linejoin:round;stroke-miterlimit:4;stroke-dasharray:none;stroke-opacity:1;paint-order:stroke markers fill"
         d="m 19.346528,28.181297 c 0.204519,2.443652 1.78342,3.7886 3.445359,7.661 0.33977,2.411784 -1.18691,4.430183 -1.807425,6.640285 0.103507,0.797224 1.614219,7.662333 3.622436,6.556812 C 26.607097,48.33166 23.1447,45.68785 23.615282,43.503295 28.570458,34.133924 26.08482,30.918288 28.329206,27.677751 l 7.569981,0.595878 4.82907,4.667175 c 1.008286,3.344187 1.206701,5.988212 1.271148,9.751738 l 3.512391,4.375004 c 0.885737,1.442039 3.022753,0.596634 1.892171,-0.870195 L 44.609989,42.114526 C 44.40547,38.246137 43.872335,35.582296 44.559422,31.318043 37.502258,24.668289 32.12819,22.720414 19.346557,28.181297 Z"
         id="path3864-7"
         inkscape:connector-curvature="0"
         sodipodi:nodetypes="cccccccccccccc" />
      <path
         sodipodi:nodetypes="cccccccccccccccscccccccccc"
         inkscape:connector-curvature="0"
         id="path3870-9"
         d="m 37.1363,19.471364 c 1.166061,-0.591259 2.4106,-1.143431 4.16087,-1.442402 l 4.937536,-3.439694 4.937644,-6.8793869 c 1.672192,-0.2325192 3.043294,-0.766261 6.269168,0.554693 l 0.610253,1.275992 4.604615,0.9431719 c -0.0016,3.712622 -2.409927,3.559869 -4.382645,4.10553 l -3.828098,0.832248 c -5.403713,7.159879 -0.134372,8.854821 -7.267695,14.424391 3.691045,1.1951 8.55497,1.898336 5.382022,4.859187 -1.53329,0.975749 -2.290879,2.185974 -4.054826,2.11874 -1.681797,-0.555109 -0.667852,-0.859147 0.390676,-1.70608 l 2.1109,-1.688652 -6.334678,-1.160442 c -2.03459,0.495657 -4.556736,0.231785 -6.560102,-0.05262 -4.064095,-0.577382 -6.777986,-1.981945 -10.739632,-3.091331 -6.841335,2.118103 -3.735779,7.484916 -14.979229,16.588093 -1.52268,2.155943 1.010561,6.637763 -1.492193,6.478304 -2.6958646,0.269135 -1.1508086,-7.893391 -0.893447,-8.808415 1.700768,-2.114114 4.298199,-3.600622 5.048602,-6.379937 -0.01689,-7.489762 -1.940333,-9.987949 3.106734,-14.923843 C 14.107358,12.50362 16.654109,7.1204326 21.879852,3.4380623 15.638757,13.347836 17.740456,17.258173 20.659118,20.580848 26.225619,19.934763 31.42888,19.061127 37.1363,19.471266 Z"
         style="font-style:normal;font-weight:normal;font-size:10.58333302px;line-height:1.25;font-family:sans-serif;letter-spacing:0px;word-spacing:0px;fill:#808080;fill-opacity:1;stroke:#000000;stroke-width:2.11666656;stroke-linecap:square;stroke-linejoin:round;stroke-miterlimit:4;stroke-dasharray:none;stroke-opacity:1;paint-order:stroke markers fill" />
      <path
         d="M 38.494944,30.321789 C 36.892613,29.305287 37.157665,28.689456 37.886386,27.636385 M 50.271862,13.77026 c 2.496978,-0.104994 1.841501,-1.225983 1.768025,-3.4193 m -4.86194,19.494943 -5.242406,-1.663222"
         style="font-style:normal;font-weight:normal;font-size:10.58333302px;line-height:1.25;font-family:sans-serif;letter-spacing:0px;word-spacing:0px;fill:none;fill-opacity:1;stroke:#000000;stroke-width:1.05833328;stroke-linecap:round;stroke-linejoin:round;stroke-miterlimit:4;stroke-dasharray:none;stroke-opacity:1;paint-order:stroke markers fill"
         id="path3876-0"
         inkscape:connector-curvature="0" />
    </g>
    <path
       sodipodi:nodetypes="ccccccccc"
       inkscape:connector-curvature="0"
       id="cape"
       d="m 13.829046,27.53472 c 10.773626,-1.784672 25.381299,-3.605057 32.03656,-8.194476 l 5.404148,5.006678 c 0.105465,-0.484293 0.167242,-0.970898 0.227991,-1.472238 h 0.0064 l 0.430009,-2.600496 -5.697059,-5.68281 C 35.768167,17.912129 28.347668,9.1620629 19.33149,14.888889 24.24944,19.104275 14.813576,21.83846 13.829046,27.53472 Z"
       style="font-style:normal;font-weight:normal;font-size:10.58333302px;line-height:1.25;font-family:sans-serif;letter-spacing:0px;word-spacing:0px;opacity:1;fill:#4484ce;fill-opacity:1;stroke:#000000;stroke-width:2.11666656;stroke-linecap:square;stroke-linejoin:round;stroke-miterlimit:4;stroke-dasharray:none;stroke-opacity:1;paint-order:stroke markers fill"
       clip-path="url(#clipPath4590)" />
  </g>
</svg>
